<svg width="112" height="30" viewBox="0 0 112 30" fill="none" xmlns="http://www.w3.org/2000/svg">
<g clip-path="url(#clip0_607_4449)">
<path d="M41.1647 21.9567C39.189 22.44 35.188 23.138 35.6326 19.97C35.9783 17.6075 39.4359 17.6075 41.6587 17.9296L41.1647 21.9567ZM33.9038 13.2045C36.7687 12.5065 42.0044 10.6272 41.955 15.3523C39.4359 15.406 37.559 15.0301 35.188 15.9429C29.1126 18.3592 30.9401 27.6484 41.6587 24.8563C44.9681 23.9971 44.3753 23.7824 44.8693 20.2385C45.462 16.104 46.7957 10.8956 41.5105 9.49956C40.0287 9.1237 36.2747 9.33848 34.8423 9.87543L33.9038 13.2045ZM83.4461 15.7818L76.9754 15.8355C77.42 11.4863 84.0882 10.1439 83.4461 15.7818ZM84.7797 21.4735C82.9027 21.8493 81.4209 22.6548 79.297 22.2789C77.42 21.903 76.3333 20.8291 76.4815 18.4666H86.5579C86.8543 15.1912 87.3976 10.305 82.3594 9.44587C73.2215 7.94242 69.7639 20.5607 75.5924 24.3193C77.9139 25.8228 83.3473 25.3932 83.94 24.373C84.1376 24.1045 84.6809 21.9567 84.7797 21.4735ZM99.4498 21.3124L98.6595 24.2656C102.068 26.4134 111.996 25.3932 109.872 19.0035C109.477 17.8222 108.637 17.1242 107.649 16.4799C107.007 16.0503 105.179 15.1375 104.784 14.6543C103.599 13.0971 105.624 11.003 110.415 13.0971C110.712 12.6676 110.761 12.2917 110.959 11.701C111.156 11.1104 111.255 10.7882 111.403 10.1976C108.835 9.55326 106.365 8.80153 103.599 9.92912C101.524 10.7882 97.9679 14.8153 103.796 18.2518C104.686 18.7887 106.217 19.3794 106.167 20.6144C106.118 22.0104 104.488 22.2789 103.154 22.2252C101.426 22.2252 100.882 21.742 99.4498 21.3124ZM99.0546 10.1439C96.4861 9.60695 93.8188 8.69414 91.1022 9.98282C89.9661 10.5198 89.2252 11.1104 88.7312 12.3454C86.5579 17.8759 94.214 18.1981 93.8682 20.7218C93.6707 22.0104 92.09 22.2789 90.7564 22.2252C89.2252 22.1715 88.5337 21.7957 87.2494 21.3124C86.8543 21.8493 86.4591 23.4065 86.4097 24.2656C88.1879 25.3932 92.3864 25.5543 94.461 24.8026C96.4861 24.0508 98.8076 21.742 97.474 18.6814C96.4861 16.4799 92.8804 15.6208 92.337 14.3858C91.5961 12.7749 93.3743 12.238 94.5104 12.1843C96.091 12.1306 96.9307 12.6139 98.2149 13.0971L99.0546 10.1439ZM60.1815 10.1976C57.366 9.39217 54.5999 8.85523 51.7351 10.1439C46.6969 12.3454 45.215 20.3996 49.3148 23.8361C51.3399 25.5006 54.5011 25.5006 57.4648 24.9636L58.5021 21.5809C56.5263 22.0641 54.6987 22.6548 52.8217 21.4198C49.8581 19.4331 50.5496 14.2247 54.0072 12.8286C56.2793 11.9158 57.366 12.6676 59.2924 13.1508L60.1815 10.1976ZM71.4433 21.6346C69.3688 22.0641 67.7881 22.6548 65.8618 21.5272C63.0463 19.8626 63.2933 14.4932 66.9484 12.8823C69.2206 11.8621 70.3072 12.8286 72.2336 13.1508L73.1721 10.2513C70.2085 9.39217 66.8497 8.80153 64.0836 10.4661C58.1563 14.0099 57.366 26.6282 69.1712 25.1784C70.4554 25.0173 70.406 25.1784 70.7518 23.9971C70.9988 23.1917 71.2951 22.44 71.4433 21.6346Z" fill="#004185"/>
<path d="M11.9705 2.35817L24.2202 15.6208L13.6499 27.1114L3.07953 15.6208L8.16712 9.92913H6.09257L0.906189 15.6208L13.6499 29.474L26.3442 15.6208L12.0199 -0.00439453L11.9705 2.35817Z" fill="#F57E20"/>
<path d="M12.0197 9.9829L9.79694 9.9292L4.70935 15.6208L13.6497 25.3396L22.59 15.6208L12.0197 4.07648L11.9703 6.33166L20.5155 15.6208L13.6497 23.0844L6.8333 15.6208L12.0197 9.9829Z" fill="#F57E20"/>
<path d="M13.6027 12.2919L16.7145 15.621L13.6027 18.95L10.4909 15.621L13.6027 12.2919ZM18.8385 15.621L13.6027 9.92932L8.36693 15.621L13.6027 21.3126L18.8385 15.621Z" fill="#F57E20"/>
</g>
<defs>
<clipPath id="clip0_607_4449">
<rect width="110.544" height="29.4784" fill="white" transform="translate(0.918671 -0.00476074)"/>
</clipPath>
</defs>
</svg>
