<svg width="24" height="25" viewBox="0 0 24 25" fill="none" xmlns="http://www.w3.org/2000/svg">
<g clip-path="url(#clip0_651_4545)">
<path d="M24 12.0908C24 5.46345 18.6274 0.0908203 12 0.0908203C5.37262 0.0908203 0 5.46345 0 12.0908C0 18.0803 4.38825 23.0449 10.125 23.945V15.5596H7.07812V12.0908H10.125V9.44707C10.125 6.43957 11.9166 4.77832 14.6576 4.77832C15.9705 4.77832 17.3438 5.0127 17.3438 5.0127V7.96582H15.8306C14.3399 7.96582 13.875 8.89085 13.875 9.83988V12.0908H17.2031L16.6711 15.5596H13.875V23.945C19.6117 23.0449 24 18.0804 24 12.0908Z" fill="#1877F2"/>
<path d="M16.6711 15.5596L17.2031 12.0908H13.875V9.83988C13.875 8.89076 14.3399 7.96582 15.8306 7.96582H17.3438V5.0127C17.3438 5.0127 15.9705 4.77832 14.6575 4.77832C11.9166 4.77832 10.125 6.43957 10.125 9.44707V12.0908H7.07812V15.5596H10.125V23.945C10.7453 24.0422 11.3722 24.091 12 24.0908C12.6278 24.091 13.2547 24.0422 13.875 23.945V15.5596H16.6711Z" fill="white"/>
</g>
<defs>
<clipPath id="clip0_651_4545">
<rect width="24" height="24" fill="white" transform="translate(0 0.0908203)"/>
</clipPath>
</defs>
</svg>
