<svg width="111" height="31" viewBox="0 0 111 31" fill="none" xmlns="http://www.w3.org/2000/svg">
<g clip-path="url(#clip0_607_4456)">
<path fill-rule="evenodd" clip-rule="evenodd" d="M108.538 16.1862C108.197 16.1862 107.848 16.1862 107.606 16.1551L110.844 0.958069H89.2756L88.6061 4.1086C87.8368 3.98596 87.2987 4.30034 87.1349 4.80326C86.9747 5.30577 86.3967 7.44847 86.3967 8.85856C86.3967 11.0712 86.9536 11.8821 86.9536 11.8821L82.9969 30.5068H104.562L107.167 18.2542C110.119 18.1528 110.946 17.232 110.946 16.6939C110.946 15.9457 109.469 16.1862 108.538 16.1862Z" fill="#F0BD2D"/>
<path fill-rule="evenodd" clip-rule="evenodd" d="M98.8592 14.5133C98.8592 14.5133 102.706 18.3645 108.079 17.7074C110.026 17.4645 110.457 16.9512 110.396 16.7159C110.338 16.4898 109.671 16.5857 109.022 16.6125C108.646 16.6336 105.412 17.0547 101.104 13.7815C99.428 13.3453 98.8592 14.5133 98.8592 14.5133ZM86.3729 22.7254L90.6032 21.2578L96.46 25.4061L94.1931 26.8258L97.5426 29.6112L97.5909 28.6278L98.6027 26.1399L98.5241 23.9953L96.3945 20.5359L96.8068 19.0336L96.6662 17.3487C91.16 17.361 88.7984 14.9523 87.4966 12.9798L85.4753 22.592L86.3729 22.7254ZM98.5464 9.83685L97.3365 8.67882L95.5349 10.2547L98.5464 9.83685ZM103.774 12.2436C104.137 12.9131 104.263 13.8374 104.369 15.2531C103.109 14.6771 100.997 12.9778 100.997 12.9778C98.594 12.4976 97.7667 14.4218 97.7667 14.4218L98.3099 14.9044C98.105 15.8451 97.4379 16.3197 97.4379 16.3197C86.7081 16.3197 86.943 9.62873 86.943 8.85818C86.943 7.44849 87.4966 5.38928 87.6724 4.93829C87.8493 4.4913 88.657 4.6387 88.657 4.6387L93.9055 5.40366L95.01 4.79888C95.01 4.79888 96.6262 4.67864 98.3878 5.17517C98.3878 5.17517 101.097 7.4429 102.143 9.09625L102.063 9.95309C102.063 9.95309 103.442 11.622 103.774 12.2436ZM102.709 25.4205C103.124 25.4205 103.411 25.1689 103.411 25.1689C103.453 24.5517 103.31 24.2321 103.31 24.2321C102.813 24.3624 102.408 24.1866 102.354 23.6789C102.286 22.997 103.827 20.0127 104.221 19.0172C104.376 18.6285 104.389 18.0737 104.389 18.0737C102.744 17.8452 101.323 16.9656 101.323 16.9656L101.483 18.009C101.548 18.6493 100.718 22.0415 100.888 23.7144C100.888 23.7144 101.032 25.4273 102.709 25.4205ZM90.5381 24.9639L90.5257 21.9872L93.7385 24.2421L92.8054 28.8315L93.2376 29.7223H89.3621L88.9223 28.8395L90.5381 24.9639Z" fill="#003B65"/>
<path fill-rule="evenodd" clip-rule="evenodd" d="M74.3931 22.9305C74.92 22.9305 75.2823 23.141 75.4968 23.5732C75.7105 24.0042 75.7293 24.6513 75.5571 25.511C75.4624 25.9588 75.3378 26.3506 75.1772 26.6838C75.0214 27.0157 74.8401 27.2938 74.6328 27.5055C74.4278 27.7284 74.2061 27.8909 73.9645 27.9932C73.7196 28.1035 73.4711 28.1514 73.2183 28.1514C73.0737 28.1514 72.9319 28.1334 72.7861 28.1059C72.6391 28.0723 72.5056 28.0399 72.3898 27.9932C72.2676 27.9501 72.1761 27.9053 72.1034 27.8586C72.0335 27.8099 71.9999 27.7683 72.0067 27.7352C72.0155 27.7204 72.0175 27.7028 72.0279 27.6848C72.0279 27.6661 72.0403 27.6449 72.0599 27.6269L72.2328 27.3329C72.2516 27.3029 72.2804 27.2938 72.3151 27.2938C72.3063 27.2938 72.3331 27.3029 72.3942 27.3205C72.4657 27.3393 72.5432 27.3629 72.6475 27.3864C72.7485 27.4188 72.8608 27.4408 72.9766 27.4543C73.0972 27.4743 73.2079 27.4843 73.3141 27.4843C73.4631 27.4843 73.6117 27.4519 73.7572 27.3908C73.9034 27.3329 74.038 27.2239 74.1614 27.0725C74.2864 26.9275 74.3999 26.7325 74.5089 26.4853C74.6104 26.238 74.7043 25.932 74.7798 25.5665C74.7043 25.7391 74.6148 25.8729 74.5225 25.9831C74.4278 26.0886 74.33 26.1745 74.2305 26.238C74.1302 26.2995 74.02 26.3418 73.9089 26.3674C73.7951 26.3962 73.6781 26.401 73.5606 26.401C73.273 26.401 73.0457 26.3542 72.8664 26.2672C72.687 26.1745 72.558 26.0546 72.4689 25.8949C72.3742 25.7439 72.3287 25.5621 72.3151 25.3596C72.3063 25.1491 72.3207 24.9306 72.3722 24.6937C72.4222 24.4484 72.4989 24.2235 72.5999 24.0062C72.7098 23.7925 72.8396 23.6032 73.0026 23.4486C73.1683 23.286 73.3641 23.1622 73.5994 23.0707C73.8263 22.9708 74.0971 22.9305 74.3931 22.9305ZM70.3217 22.9249C70.5901 22.9249 70.8186 22.9541 70.9976 23.0208C71.1789 23.0831 71.3219 23.1702 71.423 23.286C71.5288 23.3995 71.5924 23.5377 71.6179 23.6947C71.6479 23.8561 71.6383 24.0366 71.6 24.2236C71.5524 24.4676 71.441 24.6777 71.264 24.8495C71.0914 25.0277 70.8498 25.1715 70.5634 25.2881C70.8709 25.4108 71.0914 25.5785 71.2225 25.8058C71.3531 26.0243 71.3886 26.2995 71.3195 26.6191C71.2225 27.118 70.992 27.4919 70.6313 27.7572C70.2618 28.02 69.8024 28.1458 69.2479 28.1458C68.6723 28.1458 68.2625 28.0144 68.0152 27.7516C67.7691 27.4863 67.7056 27.1065 67.8015 26.6111C67.8674 26.2995 68.0096 26.0299 68.2357 25.8058C68.4534 25.5785 68.7434 25.404 69.1101 25.2781C68.8641 25.1755 68.6903 25.0345 68.5844 24.8675C68.4806 24.6937 68.4498 24.4796 68.5053 24.226C68.5477 24.0366 68.6156 23.8625 68.7071 23.6967C68.8017 23.5377 68.9252 23.3995 69.071 23.286C69.2248 23.1702 69.3985 23.0831 69.6079 23.0208C69.812 22.9517 70.0512 22.9249 70.3217 22.9249ZM58.634 24.3127C58.7574 24.3127 58.8724 24.3247 58.9767 24.3483C59.0874 24.3702 59.1852 24.3986 59.2719 24.4374C59.3578 24.4677 59.4357 24.5089 59.4992 24.5488C59.5639 24.5899 59.6118 24.6279 59.6418 24.6567C59.6642 24.6822 59.6762 24.7046 59.6742 24.7282C59.6694 24.7569 59.6506 24.7969 59.6106 24.8408L59.4089 25.0621C59.3826 25.0857 59.3546 25.1009 59.321 25.0933C59.2887 25.0933 59.2575 25.0857 59.222 25.0809C59.1621 25.0577 59.0674 25.0178 58.9591 24.9722C58.8489 24.9243 58.7139 24.9051 58.5561 24.9051C58.3803 24.9051 58.2265 24.9387 58.0935 25.0154C57.9625 25.0913 57.8478 25.1911 57.752 25.307C57.6585 25.4288 57.5826 25.571 57.5207 25.7292C57.4584 25.8906 57.4076 26.0564 57.3777 26.2301C57.3397 26.4051 57.3222 26.5721 57.3154 26.7382C57.3054 26.894 57.3297 27.0342 57.3733 27.1545C57.4212 27.2783 57.4903 27.373 57.595 27.4453C57.6928 27.5132 57.8355 27.5535 58.0012 27.5535C58.1418 27.5535 58.2697 27.5288 58.3935 27.492C58.5125 27.4521 58.6316 27.4129 58.7522 27.3786C58.7922 27.3574 58.8345 27.355 58.8625 27.355C58.9012 27.355 58.9204 27.3662 58.9356 27.3905L59.0326 27.6134C59.0674 27.6826 59.0514 27.7425 58.9959 27.7948C58.9112 27.8683 58.7698 27.9498 58.5549 28.0245C58.3456 28.1036 58.0883 28.1435 57.7835 28.1435C57.4584 28.1435 57.1983 28.0868 57.0058 27.9833C56.8164 27.8763 56.6762 27.7349 56.584 27.5611C56.4957 27.3866 56.4513 27.1804 56.4409 26.9463C56.4409 26.7191 56.4657 26.4718 56.5204 26.2229C56.574 25.9641 56.6527 25.7224 56.7517 25.4911C56.8496 25.2582 56.9846 25.0533 57.1548 24.8827C57.3154 24.7046 57.5207 24.5708 57.764 24.4677C58.0012 24.3662 58.2932 24.3127 58.634 24.3127ZM61.9001 24.315C62.1126 24.317 62.3067 24.3462 62.4817 24.4073C62.6586 24.4676 62.8024 24.5611 62.9123 24.6881C63.0237 24.8115 63.0996 24.9721 63.1364 25.1611C63.1787 25.354 63.1687 25.5709 63.1184 25.825C63.0908 25.9584 63.0549 26.0754 63.011 26.1613C62.9682 26.2504 62.9079 26.3219 62.8368 26.3738C62.7633 26.4285 62.6734 26.4717 62.5739 26.4944C62.4681 26.5168 62.3423 26.5276 62.2013 26.5276H60.7364C60.7153 26.6778 60.7121 26.8108 60.7229 26.9386C60.732 27.0633 60.7624 27.1679 60.8175 27.2594C60.8679 27.3509 60.9434 27.4276 61.0404 27.4743C61.1399 27.5286 61.2709 27.5534 61.4259 27.5534C61.5637 27.5534 61.7063 27.5366 61.8465 27.5019C61.9915 27.4643 62.1477 27.4276 62.2999 27.3784C62.3802 27.3553 62.4269 27.3461 62.4445 27.3553C62.4625 27.3665 62.4817 27.3784 62.4817 27.3908L62.5827 27.6137C62.6219 27.6824 62.6043 27.7451 62.5448 27.7951C62.504 27.8394 62.4405 27.8766 62.3514 27.9161C62.2632 27.9609 62.1621 27.9976 62.0427 28.0312C61.9216 28.0623 61.7942 28.0867 61.6484 28.1099C61.5114 28.1334 61.3656 28.1434 61.2098 28.1434C60.8846 28.1434 60.6198 28.0867 60.4261 27.9876C60.2323 27.8854 60.0873 27.7451 59.9982 27.5722C59.9068 27.3996 59.8588 27.2015 59.8532 26.9754C59.8468 26.7485 59.872 26.5144 59.9179 26.2672C59.9679 25.9919 60.0514 25.7439 60.1596 25.5034C60.2631 25.2681 60.4025 25.062 60.5639 24.8906C60.7229 24.7069 60.9158 24.571 61.1331 24.4676C61.358 24.3661 61.6117 24.315 61.9001 24.315ZM48.414 22.9059C48.5698 22.9059 48.7268 22.9227 48.877 22.9471C49.0344 22.9706 49.1802 23.0006 49.306 23.0429C49.4362 23.0809 49.5453 23.114 49.632 23.1544C49.7266 23.1919 49.7826 23.2267 49.8081 23.2546C49.8285 23.2702 49.8405 23.2914 49.8361 23.3169C49.8329 23.3393 49.8193 23.3817 49.7826 23.4384L49.6044 23.7312C49.5912 23.758 49.5633 23.7735 49.5253 23.7659C49.4918 23.7603 49.453 23.7536 49.4207 23.7424C49.3795 23.7312 49.3192 23.7156 49.2345 23.6924C49.1542 23.6745 49.0608 23.6577 48.9565 23.6421C48.8538 23.6253 48.7456 23.6078 48.6369 23.5934C48.5243 23.5798 48.4184 23.5734 48.3206 23.5734C48.1324 23.5734 47.9674 23.5978 47.8416 23.6445C47.709 23.6924 47.5999 23.7536 47.514 23.8259C47.4294 23.9006 47.3603 23.9737 47.3171 24.0587C47.2748 24.1402 47.2436 24.2237 47.2288 24.3004C47.1965 24.4274 47.2113 24.5433 47.2748 24.6507C47.3315 24.7614 47.4785 24.8672 47.6978 24.9563L48.3325 25.2136C48.5183 25.2883 48.6857 25.3794 48.8103 25.4908C48.9429 25.5999 49.044 25.7225 49.1235 25.8563C49.1954 25.9897 49.2393 26.1275 49.2589 26.2793C49.2816 26.4287 49.2805 26.5797 49.2445 26.7379C49.2046 26.9544 49.1211 27.1446 48.9964 27.3127C48.865 27.4841 48.7112 27.6315 48.5231 27.7569C48.3369 27.8764 48.122 27.9686 47.8804 28.031C47.6399 28.1037 47.3838 28.1336 47.111 28.1336C46.9584 28.1336 46.8102 28.1192 46.6564 28.0957C46.5018 28.0721 46.3636 28.0421 46.231 28.0122C46.0976 27.9762 45.9817 27.9331 45.8883 27.8975C45.7912 27.8588 45.7257 27.8161 45.6865 27.7893C45.6646 27.7617 45.6554 27.737 45.6566 27.7134C45.6646 27.6926 45.6845 27.6535 45.7133 27.6035L45.889 27.3095C45.9046 27.2816 45.9362 27.2692 45.9717 27.276C46.0117 27.278 46.0452 27.2816 46.0796 27.2972C46.1251 27.3095 46.1886 27.3307 46.2789 27.3463C46.366 27.3663 46.4671 27.3862 46.5777 27.3974C46.6824 27.4186 46.7958 27.4318 46.9093 27.441C47.0287 27.4541 47.1354 27.4621 47.2436 27.4621C47.5544 27.4621 47.8172 27.403 48.0266 27.2892C48.2435 27.1681 48.3661 27.0064 48.404 26.8106C48.4348 26.6436 48.4016 26.4942 48.297 26.3696C48.1891 26.2426 48.0521 26.1423 47.8907 26.0776L47.2512 25.8084C47.0954 25.7437 46.9564 25.6646 46.8314 25.5743C46.7067 25.4872 46.6033 25.3818 46.5262 25.2683C46.4463 25.1493 46.396 25.0178 46.366 24.8748C46.3348 24.7282 46.3448 24.5645 46.3816 24.3815C46.4307 24.151 46.5162 23.9485 46.6408 23.7659C46.7691 23.5798 46.9272 23.4264 47.111 23.299C47.2971 23.1735 47.4985 23.0753 47.7202 23.0098C47.9451 22.9415 48.1736 22.9059 48.414 22.9059ZM79.6176 23.0206C79.7063 23.0206 79.7479 23.0617 79.7275 23.1544L79.0896 26.2302H79.5382C79.6328 26.2302 79.6732 26.2794 79.6476 26.374L79.5773 26.7192C79.5685 26.815 79.5106 26.8598 79.4115 26.8598H78.9637L78.7408 27.9275C78.7133 28.0246 78.6641 28.0697 78.5719 28.0697H77.9583C77.8576 28.0697 77.8189 28.0222 77.8377 27.9275L78.063 26.8598H76.0057C75.9135 26.8598 75.8747 26.8103 75.8855 26.7192L75.9019 26.6513C75.9191 26.5989 75.9322 26.5578 75.9466 26.5143C75.9634 26.4719 75.9914 26.4352 76.0349 26.3964L78.8926 23.1296C78.9689 23.0541 79.0528 23.0206 79.1431 23.0206H79.6176ZM67.4183 23.0498L66.4073 27.9164C66.3885 28.0122 66.3326 28.0626 66.2439 28.0626H65.6367C65.5365 28.0626 65.4965 28.0122 65.5173 27.9164L66.3194 24.0444L65.3471 24.4439C65.25 24.4798 65.2145 24.4483 65.2357 24.3592L65.3203 23.9661C65.3355 23.867 65.3958 23.7979 65.4897 23.76L67.3037 22.9707C67.3995 22.9307 67.4351 22.9539 67.4183 23.0498ZM51.3053 24.3984C51.3999 24.3984 51.4395 24.4463 51.4195 24.5406L50.9162 26.9753C50.8794 27.1503 50.8743 27.2741 50.9006 27.346C50.9274 27.4275 50.9609 27.4595 51.0121 27.4595H51.0276C51.1191 27.4595 51.1567 27.5054 51.1403 27.5993L51.078 27.9053C51.058 28.0051 51.0021 28.0523 50.9098 28.0523H50.8651C50.1792 28.0523 49.9052 27.7047 50.051 27.0232L50.5635 24.5406C50.5822 24.4439 50.6426 24.3984 50.7344 24.3984H51.3053ZM54.6217 24.3169C54.8074 24.3169 54.9844 24.346 55.1382 24.4072C55.3008 24.4675 55.433 24.5566 55.5337 24.6756C55.6359 24.7902 55.7074 24.9364 55.7498 25.1078C55.7885 25.278 55.7897 25.4729 55.747 25.6958L55.4777 26.9809C55.441 27.1522 55.4398 27.2785 55.4653 27.3508C55.4933 27.4295 55.5337 27.4622 55.578 27.4622H55.5868C55.6894 27.4622 55.7206 27.5109 55.7018 27.6036L55.6359 27.9128C55.6203 28.0099 55.5624 28.0522 55.4777 28.0522H55.433C54.7439 28.0522 54.4723 27.7135 54.6125 27.0256L54.8398 25.9319C54.8654 25.7985 54.8785 25.6646 54.8845 25.5456C54.8873 25.4174 54.8785 25.3071 54.8474 25.2181C54.8174 25.1222 54.7651 25.0475 54.688 24.9908C54.6169 24.9364 54.5222 24.9073 54.402 24.9073C53.9055 24.9073 53.5791 25.2704 53.4253 26.0066L53.0286 27.9128C53.0111 28.0055 52.9563 28.0522 52.8653 28.0522H52.2936C52.195 28.0522 52.1546 28.0055 52.175 27.9052L52.6959 25.3994C52.7259 25.258 52.7259 25.1489 52.6991 25.0834C52.6667 25.0219 52.6304 24.9908 52.5789 24.9908H52.5689C52.4762 24.9908 52.4331 24.9428 52.4546 24.8494L52.5201 24.541C52.5377 24.4463 52.5932 24.3984 52.6959 24.3984H52.7358C52.8797 24.3984 53.0043 24.4139 53.1002 24.4419C53.2004 24.4675 53.2807 24.5018 53.3338 24.5486C53.3942 24.6045 53.4321 24.6588 53.4553 24.7303C53.4788 24.807 53.4876 24.8905 53.4876 24.9788H53.502C53.6682 24.7503 53.8352 24.5901 53.9989 24.4799C54.1703 24.3704 54.3732 24.3169 54.6217 24.3169ZM69.7636 25.65C69.6426 25.65 69.5232 25.6744 69.4129 25.7135C69.2975 25.7579 69.1904 25.8226 69.0965 25.9065C68.9999 25.9852 68.9196 26.081 68.8485 26.2001C68.777 26.3127 68.727 26.4398 68.6979 26.5876C68.6416 26.8696 68.6835 27.0901 68.8173 27.2495C68.9583 27.4108 69.1433 27.4887 69.3854 27.4887C69.5056 27.4887 69.6154 27.4688 69.7305 27.432C69.8439 27.3909 69.9498 27.3329 70.0477 27.257C70.1371 27.1736 70.2262 27.0757 70.2917 26.975C70.3604 26.8596 70.4096 26.7382 70.4375 26.5987C70.4667 26.4509 70.4687 26.3195 70.4431 26.2001C70.4228 26.081 70.3852 25.9832 70.3217 25.9037C70.2562 25.8226 70.1783 25.7595 70.0836 25.7135C69.9841 25.6744 69.8807 25.65 69.7636 25.65ZM78.5719 24.3983H78.5551L77.0192 26.2302H78.192L78.5719 24.3983ZM61.8246 24.905C61.6943 24.905 61.5821 24.9306 61.4762 24.9909C61.3692 25.0432 61.2833 25.1179 61.201 25.2158C61.1251 25.3073 61.0572 25.4127 61.0017 25.5421C60.9434 25.6648 60.8958 25.7982 60.8599 25.9352L61.9572 25.9396C62.0694 25.9396 62.1417 25.9296 62.1853 25.8973C62.232 25.8729 62.2648 25.8082 62.2819 25.7003C62.3035 25.5957 62.3111 25.4954 62.3035 25.3995C62.2959 25.3073 62.2648 25.2202 62.2252 25.1491C62.1853 25.0744 62.1333 25.0176 62.0694 24.9721C61.9951 24.9286 61.9168 24.905 61.8246 24.905ZM74.3244 23.5932C74.147 23.5932 73.9956 23.6255 73.8698 23.6902C73.7476 23.7538 73.6417 23.8305 73.557 23.9419C73.4679 24.0478 73.4008 24.1656 73.3497 24.3026C73.293 24.4416 73.2494 24.5754 73.2287 24.7181C73.1947 24.8527 73.1735 24.9909 73.1735 25.1155C73.1683 25.2369 73.1907 25.3472 73.2287 25.4319C73.2694 25.529 73.3401 25.6021 73.4288 25.6524C73.5215 25.7115 73.6493 25.7359 73.8163 25.7359C73.9733 25.7359 74.1115 25.7023 74.2185 25.6348C74.33 25.5665 74.4278 25.473 74.5089 25.3596C74.5872 25.2469 74.6515 25.1155 74.7043 24.9621C74.7566 24.8207 74.7941 24.6565 74.8321 24.4852C74.8553 24.3326 74.8597 24.2012 74.8421 24.0921C74.8233 23.9763 74.7854 23.8872 74.7338 23.8125C74.6803 23.7366 74.624 23.6811 74.5469 23.6491C74.4738 23.6112 74.3999 23.5932 74.3244 23.5932ZM69.6738 23.7694C69.5196 23.8952 69.4321 24.0442 69.3985 24.2212C69.3774 24.319 69.3762 24.4117 69.3897 24.502C69.4073 24.5899 69.4361 24.659 69.4832 24.7281C69.5276 24.7968 69.5903 24.8495 69.659 24.8863C69.7293 24.9242 69.812 24.945 69.9086 24.945C69.9905 24.945 70.0788 24.9282 70.1667 24.8927C70.2534 24.8495 70.3329 24.8024 70.4076 24.7381C70.4835 24.6777 70.5434 24.6046 70.5957 24.5156C70.6512 24.4253 70.6836 24.3246 70.708 24.2236C70.7491 24.0286 70.7128 23.874 70.6089 23.7582C70.5066 23.6423 70.3604 23.5864 70.1783 23.5864C69.9905 23.58 69.8208 23.6467 69.6738 23.7694ZM51.6268 22.8537C51.7215 22.8537 51.7595 22.904 51.7359 22.9983L51.618 23.5587C51.5937 23.6486 51.5401 23.6922 51.4483 23.6922H50.8818C50.7796 23.6922 50.7428 23.6486 50.7584 23.5587L50.8818 22.9927C50.9006 22.8992 50.9585 22.8537 51.058 22.8537H51.6268Z" fill="#003B65"/>
<path fill-rule="evenodd" clip-rule="evenodd" d="M14.0832 11.2105C14.3516 11.2105 14.4539 11.3419 14.3972 11.6055L12.8549 18.6851C12.7546 19.1709 12.7414 19.516 12.8213 19.7241C12.8896 19.9378 12.9951 20.0393 13.1285 20.0393H13.1676C13.4317 20.0393 13.5375 20.1731 13.4796 20.4324L13.3071 21.2912C13.2503 21.5553 13.0965 21.6875 12.8437 21.6875H12.7258C10.8036 21.6819 10.0439 20.7276 10.4425 18.8218L12.0132 11.6031C12.0631 11.3419 12.2253 11.2105 12.4942 11.2105H14.0832ZM54.7218 10.9008C55.4041 10.9008 55.9841 11.0174 56.4558 11.2603C56.9312 11.4932 57.3019 11.8719 57.5783 12.3832H57.6195L57.9458 11.5555C57.9977 11.4109 58.0533 11.3106 58.118 11.2527C58.1851 11.19 58.2897 11.1612 58.4367 11.1612H59.8412C60.1069 11.1612 60.2151 11.2982 60.156 11.5599L58.7308 18.6059C58.6341 19.0294 58.6285 19.3266 58.714 19.5083C58.7955 19.6817 58.9009 19.772 59.0371 19.772H59.0767C59.3443 19.772 59.4502 19.909 59.3899 20.1662L59.2129 21.035C59.163 21.2987 59.0012 21.4325 58.7519 21.4325H58.6285C57.7972 21.4301 57.2332 21.2863 56.9232 20.9959C56.6168 20.7107 56.4702 20.3164 56.4858 19.8111H56.4446C55.8954 20.4682 55.2962 20.9456 54.6435 21.2412C53.9908 21.5336 53.2793 21.6874 52.5164 21.6874C51.944 21.6818 51.4183 21.5939 50.9441 21.4157C50.462 21.2388 50.0745 20.9336 49.7769 20.5133C49.4729 20.0939 49.2792 19.5371 49.1877 18.8464C49.101 18.153 49.1597 17.2921 49.3746 16.2527C49.5855 15.2361 49.8792 14.3865 50.2471 13.7002C50.6158 13.0167 51.04 12.4619 51.5129 12.0544C51.9887 11.639 52.4988 11.3418 53.0421 11.1612C53.5901 10.9887 54.1502 10.9008 54.7218 10.9008ZM27.5631 10.8808C28.4171 10.8808 29.1421 10.9863 29.7277 11.1956C30.3134 11.4085 30.698 11.6222 30.8682 11.8483C30.8918 11.8886 30.9081 11.9466 30.9297 12.0301C30.9437 12.1067 30.8858 12.217 30.7556 12.3616L30.1967 12.9943C30.1364 13.0858 30.0561 13.1246 29.9594 13.1046C29.8624 13.0834 29.7633 13.0627 29.6718 13.0331C29.3323 12.8985 28.9828 12.7858 28.6308 12.688C28.2789 12.5889 27.8866 12.539 27.4568 12.539C26.8592 12.539 26.3991 12.6568 26.0951 12.8921C25.7799 13.1314 25.5794 13.4409 25.4935 13.8252C25.4511 14.0453 25.4759 14.245 25.5606 14.4132C25.6561 14.5858 25.829 14.7104 26.0907 14.7915L28.2925 15.4634C29.1074 15.7151 29.6275 16.0826 29.8624 16.5715C30.0897 17.0568 30.1264 17.6852 29.9694 18.4477C29.856 18.9878 29.6419 19.4556 29.3323 19.8467C29.0175 20.2433 28.644 20.5781 28.2042 20.8477C27.762 21.1161 27.2811 21.3199 26.753 21.4493C26.2233 21.5795 25.684 21.6438 25.1384 21.6438C24.7129 21.6438 24.3055 21.6175 23.9288 21.5627C23.5501 21.5116 23.2094 21.4401 22.8986 21.3534C22.587 21.2675 22.3366 21.1689 22.1372 21.0494C21.9379 20.9312 21.8009 20.8066 21.7294 20.6739C21.6359 20.5014 21.6571 20.3308 21.8021 20.1582L22.3653 19.5303C22.4332 19.4656 22.5191 19.4288 22.6238 19.4388C22.7228 19.4456 22.8067 19.4656 22.8878 19.4867C23.2529 19.6218 23.6328 19.734 24.0303 19.8343C24.4245 19.9381 24.8679 19.9837 25.3657 19.9861C25.7775 19.9861 26.125 19.9457 26.3991 19.869C26.6775 19.7899 26.906 19.6885 27.0749 19.5614C27.2431 19.4344 27.3658 19.2978 27.4512 19.1316C27.5327 18.981 27.595 18.82 27.6298 18.6615C27.6909 18.3623 27.6218 18.1274 27.4269 17.9636C27.2275 17.7954 26.8624 17.6229 26.3244 17.4355L24.693 16.9222C24.0003 16.6941 23.5393 16.3298 23.312 15.8141C23.0812 15.2984 23.04 14.7148 23.1694 14.0557C23.2697 13.6067 23.4323 13.1937 23.6728 12.803C23.91 12.4143 24.2164 12.0752 24.5871 11.788C24.9602 11.4956 25.3956 11.2727 25.8933 11.1169C26.3943 10.9595 26.9467 10.8808 27.5631 10.8808ZM22.342 10.9739C22.4734 10.9739 22.5629 10.9863 22.608 11.0111C22.6528 11.0422 22.6616 11.1257 22.6236 11.2727L22.3064 12.7527C22.2729 12.8841 22.2286 12.9732 22.1706 13.0188C22.1115 13.0647 22.0448 13.0935 21.9645 13.0982C21.8846 13.1046 21.7983 13.0982 21.7061 13.0791C21.6146 13.0591 21.5235 13.0479 21.432 13.0479C20.1626 13.0479 19.3884 13.6834 19.1224 14.9621L17.785 21.0706C17.7271 21.3415 17.5725 21.4693 17.3184 21.4693L15.717 21.4661C15.4354 21.4661 15.3247 21.3367 15.3794 21.0706L16.9186 13.9543C17.0132 13.5321 17.0152 13.2305 16.9397 13.0543C16.8562 12.8777 16.746 12.7883 16.6122 12.7883H16.571C16.3062 12.7859 16.1979 12.6568 16.2571 12.3928L16.4308 11.5188C16.4899 11.2603 16.6489 11.1257 16.9186 11.1257H17.0364C17.8653 11.1281 18.4433 11.2272 18.7661 11.4285C19.0824 11.6222 19.2462 11.9075 19.2506 12.2774H19.2917C19.7216 11.814 20.1626 11.4832 20.6191 11.2771C21.0713 11.0778 21.6449 10.9739 22.342 10.9739ZM77.4419 7.22884L75.7027 15.675L79.9158 11.4931C80.1319 11.2774 80.3736 11.1735 80.6404 11.1735L82.3034 11.1791C82.6109 11.1791 82.6365 11.2837 82.3816 11.4931L77.4391 16.1328L80.6284 21.1304C80.7654 21.3413 80.6919 21.4468 80.4103 21.4468H78.4458C78.1662 21.4468 77.9692 21.3413 77.8602 21.1304L75.4211 16.958L74.5802 21.0493C74.5231 21.3133 74.3665 21.4404 74.1125 21.4404H72.5326C72.2482 21.4404 72.1367 21.3101 72.1971 21.0493L74.774 8.57981L77.4419 7.22884ZM67.9386 10.9285C68.4727 10.9285 68.9604 11.0132 69.405 11.1882C69.8472 11.3559 70.2211 11.608 70.5087 11.9387C70.8008 12.2651 71.0009 12.6733 71.1155 13.1535C71.225 13.6356 71.2194 14.1869 71.1023 14.8017L70.3486 18.4168C70.2539 18.9065 70.2427 19.2564 70.3126 19.4657C70.3873 19.6762 70.4888 19.7801 70.627 19.7801H70.6657C70.9274 19.7801 71.0388 19.9147 70.9801 20.1808L70.8071 21.0492C70.7492 21.31 70.5946 21.4383 70.3374 21.4383H70.2211C68.2802 21.4383 67.5156 20.476 67.9151 18.5538L68.5542 15.4707C68.6321 15.0889 68.6732 14.7274 68.6824 14.3762C68.6944 14.0291 68.6545 13.7191 68.5698 13.4599C68.4875 13.1934 68.3461 12.9853 68.1364 12.8271C67.9386 12.6681 67.6634 12.5891 67.3127 12.5891C65.907 12.5871 64.9994 13.6157 64.5872 15.6673L63.4671 21.0392C63.4104 21.3012 63.2542 21.4347 62.9981 21.4347L61.3979 21.4327C61.1159 21.4327 61.0048 21.2988 61.0592 21.0372L62.508 13.9856C62.6051 13.5677 62.6095 13.2661 62.5236 13.0856C62.4413 12.9086 62.3366 12.8195 62.2008 12.8195H62.1609C61.8956 12.8195 61.791 12.6901 61.8421 12.4241L62.0215 11.5553C62.0794 11.2936 62.2352 11.1614 62.508 11.1614H62.6266C63.0437 11.1614 63.3868 11.2025 63.6644 11.2692C63.9381 11.3459 64.1586 11.4498 64.3267 11.5888C64.4893 11.7258 64.6031 11.9008 64.6631 12.1045C64.7222 12.3018 64.7522 12.5319 64.7466 12.784H64.7925C65.2559 12.15 65.7268 11.6867 66.191 11.3851C66.66 11.0775 67.2436 10.9285 67.9386 10.9285ZM40.9156 7.19313L43.8824 7.20112C45.447 7.20112 46.6206 7.52188 47.3936 8.16781C48.1689 8.81253 48.4294 9.74127 48.1801 10.9552C48.0295 11.6659 47.7399 12.2651 47.3145 12.7528C46.8915 13.2369 46.3414 13.626 45.6667 13.914L45.6595 13.9544C46.6043 14.1014 47.2622 14.4864 47.6333 15.1104C48.0108 15.7395 48.1022 16.4901 47.9137 17.3777C47.7971 17.9513 47.5742 18.4866 47.2378 18.9736C46.9103 19.4601 46.5028 19.8879 46.0151 20.2542C45.5325 20.6237 44.9893 20.9145 44.3869 21.1139C43.7877 21.322 43.1561 21.4178 42.5082 21.4178L37.9931 21.4158C37.7083 21.4158 37.5993 21.2824 37.6604 21.0204L40.4314 7.58979C40.4882 7.32815 40.6495 7.19313 40.9156 7.19313ZM36.9284 8.00179L36.2973 11.1423H37.5991C37.8664 11.1447 37.9766 11.275 37.9143 11.539L37.7461 12.3084C37.6926 12.5744 37.5256 12.707 37.2592 12.707H35.9585L34.7949 18.3933C34.6955 18.8822 34.7282 19.2274 34.8884 19.4391C35.0502 19.6508 35.2415 19.7555 35.472 19.7555L35.8052 19.7587C36.0744 19.7587 36.1826 19.8877 36.1235 20.1497L35.9454 21.0181C35.8918 21.2822 35.7348 21.4156 35.482 21.4156H34.5409C33.6333 21.4156 32.9942 21.162 32.6255 20.6506C32.256 20.1441 32.1813 19.3744 32.393 18.331L33.5498 12.7026H32.5072C32.2404 12.7026 32.1345 12.572 32.1936 12.3016L32.3606 11.533C32.4126 11.2726 32.5799 11.1423 32.8484 11.1423H33.8893L34.2337 9.36714L36.9284 8.00179ZM3.85674 7.16656L10.9328 7.17455C11.202 7.17455 11.3046 7.30118 11.2531 7.56962L11.0462 8.55428C10.9903 8.81833 10.8269 8.94975 10.5621 8.94975H5.60717L4.70839 13.3142H8.66183C8.92707 13.3142 9.03053 13.4512 8.977 13.7113L8.77328 14.6984C8.71775 14.962 8.55158 15.0934 8.28873 15.0934L4.33649 15.089L3.11934 20.9958C3.06465 21.2481 2.91969 21.3845 2.68268 21.3889L0.93111 21.3889C0.651489 21.3889 0.535646 21.2575 0.593567 20.9914L3.371 7.56562C3.42573 7.29919 3.5903 7.16656 3.85674 7.16656ZM54.8217 12.5557C54.4621 12.5557 54.127 12.6113 53.8162 12.7159C53.5074 12.8194 53.233 13.0107 52.9909 13.2895C52.7449 13.568 52.5196 13.9399 52.317 14.4128C52.1109 14.8874 51.9364 15.4997 51.7818 16.2527C51.6256 17.0157 51.5421 17.6392 51.5397 18.127C51.5365 18.6139 51.6056 19.0002 51.739 19.2834C51.8721 19.5658 52.0722 19.7588 52.3326 19.869C52.5959 19.9713 52.9019 20.0216 53.2662 20.0216C54.1605 20.0272 54.9051 19.7344 55.5091 19.1484C56.1011 18.566 56.5401 17.5993 56.813 16.2527C57.0826 14.9377 57.0382 13.993 56.6915 13.4198C56.3388 12.8461 55.7116 12.5557 54.8217 12.5557ZM43.1486 15.0001H41.4257L40.4446 19.7585H42.1671C42.7155 19.7585 43.1797 19.691 43.5652 19.5516C43.9483 19.4178 44.2642 19.2396 44.5139 19.0215C44.7588 18.8034 44.9493 18.5537 45.0915 18.2685C45.2265 17.9849 45.3268 17.6953 45.3859 17.3941C45.4458 17.1049 45.4582 16.8141 45.4291 16.5313C45.4023 16.2528 45.3044 15.9912 45.1375 15.7607C44.9737 15.5334 44.7308 15.3509 44.4112 15.2095C44.0929 15.0701 43.6718 15.0001 43.1486 15.0001ZM43.5193 8.85168H42.6976L41.7728 13.3376L42.9756 13.3408C43.2708 13.3408 43.5584 13.2897 43.8468 13.185C44.1352 13.0787 44.3969 12.923 44.6397 12.716C44.8778 12.5175 45.0839 12.2682 45.2653 11.9774C45.4458 11.687 45.5761 11.3631 45.6508 10.9944C45.7842 10.3461 45.6875 9.83035 45.3568 9.44168C45.0284 9.05301 44.4112 8.85807 43.5193 8.85168ZM14.9017 7.29699C15.1645 7.29699 15.2724 7.42601 15.2137 7.68766L14.8773 9.25673C14.8182 9.51638 14.6668 9.6478 14.4151 9.6478L12.8245 9.6454C12.5497 9.6454 12.435 9.51638 12.4898 9.25473L12.8305 7.68326C12.8872 7.42601 13.0462 7.29699 13.3126 7.29699H14.9017Z" fill="#003B65"/>
</g>
<defs>
<clipPath id="clip0_607_4456">
<rect width="110.544" height="29.7148" fill="white" transform="translate(0.462677 0.877014)"/>
</clipPath>
</defs>
</svg>
