<svg width="21" height="24" viewBox="0 0 21 24" fill="none" xmlns="http://www.w3.org/2000/svg">
<g clip-path="url(#clip0_652_4559)">
<path d="M9.83997 11.4858L0.582703 21.1847C0.686661 21.5531 0.873477 21.8928 1.12887 22.178C1.38426 22.4631 1.70147 22.6861 2.05625 22.8299C2.41103 22.9737 2.79398 23.0344 3.17583 23.0075C3.55768 22.9806 3.92832 22.8667 4.25942 22.6746L14.6756 16.7422L9.83997 11.4858Z" fill="#EA4335"/>
<path d="M19.2007 9.83732L14.6964 7.25732L9.62628 11.7065L14.7171 16.7284L19.1871 14.1761C19.5831 13.9687 19.9147 13.6569 20.1462 13.2745C20.3776 12.8921 20.4999 12.4536 20.4999 12.0067C20.4999 11.5597 20.3776 11.1212 20.1462 10.7388C19.9147 10.3564 19.5831 10.0446 19.1871 9.83725L19.2007 9.83732Z" fill="#FBBC04"/>
<path d="M0.582837 2.78027C0.526914 2.98714 0.499061 3.20059 0.500024 3.41488V20.5498C0.500576 20.764 0.528404 20.9773 0.582837 21.1845L10.1574 11.734L0.582837 2.78027Z" fill="#4285F4"/>
<path d="M9.90895 11.9823L14.6963 7.25711L4.29395 1.29711C3.90257 1.06791 3.45743 0.946525 3.00387 0.945317C1.87833 0.94313 0.888796 1.69016 0.582703 2.77336L9.90895 11.9823Z" fill="#34A853"/>
</g>
<defs>
<clipPath id="clip0_652_4559">
<rect width="20" height="22.1094" fill="white" transform="translate(0.5 0.945312)"/>
</clipPath>
</defs>
</svg>
