<svg width="51" height="34" viewBox="0 0 51 34" fill="none" xmlns="http://www.w3.org/2000/svg">
<path d="M1.42867 30.2223C0.826155 30.2223 0.221436 30.0916 0.221436 29.0633C0.221436 28.0351 1.02846 27.872 1.64198 27.872C1.91135 27.8718 2.17738 27.9119 2.42041 27.9895V28.2965C2.17306 28.228 1.90953 28.1892 1.64198 28.182C1.24836 28.182 0.777777 28.3127 0.777777 29.0472C0.777777 29.7816 1.13401 29.9153 1.45726 29.9153C1.63343 29.9108 1.80861 29.8956 1.98062 29.8698V29.103H1.48145L1.45726 28.8019H2.53696V30.0945C2.17797 30.1707 1.80509 30.2137 1.42867 30.2223Z" fill="#3A474F"/>
<path d="M4.88641 30.1897L4.81385 29.9841C4.60735 30.1224 4.33357 30.2068 4.04201 30.222C3.6264 30.222 3.31854 30.0972 3.31854 29.7167V28.4593H3.87488V29.658C3.87488 29.843 3.97384 29.9047 4.19374 29.9047C4.40646 29.8903 4.61011 29.8398 4.78526 29.7578V28.4622H5.3416V30.1927L4.88641 30.1897Z" fill="#3A474F"/>
<path d="M7.49244 30.19L7.42867 30.0108C7.25976 30.1463 7.00871 30.2239 6.74478 30.2223C6.42813 30.2223 5.99713 30.14 5.99713 29.6744C5.99713 29.2087 6.56887 29.1191 6.98007 29.1191H7.41987V28.959C7.41987 28.7534 7.25715 28.7343 6.98007 28.7343C6.72331 28.7439 6.46927 28.7745 6.22363 28.8253V28.5213C6.49805 28.4621 6.7841 28.4304 7.07243 28.4272C7.5628 28.4272 7.96742 28.5124 7.96742 28.9884V30.19H7.49244ZM7.41547 29.3307H7.15599C6.76018 29.3307 6.55567 29.3953 6.55567 29.6494C6.55567 29.9035 6.7162 29.9315 6.9163 29.9315C7.09975 29.9224 7.27433 29.8751 7.41547 29.7963V29.3307Z" fill="#3A474F"/>
<path d="M9.68963 28.7915C9.55083 28.7921 9.41771 28.8284 9.318 28.8929V30.1915H8.75946V28.4596H9.19926L9.27402 28.6623C9.36475 28.5243 9.56539 28.4331 9.79078 28.4272C9.87509 28.428 9.95907 28.4344 10.0415 28.4463V28.8224C9.9261 28.804 9.80819 28.7937 9.68963 28.7915Z" fill="#3A474F"/>
<path d="M11.7614 30.19L11.6976 30.0108C11.5287 30.1463 11.2777 30.2239 11.0138 30.2223C10.6971 30.2223 10.2661 30.14 10.2661 29.6744C10.2661 29.2087 10.8378 29.1191 11.2491 29.1191H11.6889V28.959C11.6889 28.7534 11.5261 28.7343 11.2491 28.7343C10.9923 28.7437 10.7382 28.7743 10.4926 28.8253V28.5213C10.767 28.4621 11.0531 28.4304 11.3414 28.4272C11.8296 28.4272 12.2364 28.5124 12.2364 28.9884V30.19H11.7614ZM11.6845 29.3307H11.425C11.0292 29.3307 10.8247 29.3953 10.8247 29.6494C10.8247 29.9035 10.9852 29.9315 11.1853 29.9315C11.3687 29.9224 11.5433 29.8751 11.6845 29.7963V29.3307Z" fill="#3A474F"/>
<path d="M14.6064 30.19V28.9487C14.6064 28.7695 14.4547 28.7475 14.2502 28.7475C14.0148 28.7567 13.7872 28.8074 13.5905 28.8944V30.187H13.043V28.4596H13.4828L13.5817 28.6593C13.8192 28.5223 14.1173 28.4408 14.4305 28.4272C14.8703 28.4272 15.1584 28.5477 15.1584 28.9428V30.19H14.6064Z" fill="#3A474F"/>
<path d="M16.6368 30.2224C16.274 30.2224 15.9903 30.1445 15.9903 29.7714V28.7241H15.5505V28.4596H15.9903L16.0255 28.0718L16.5489 27.9382V28.4596H17.1338L17.0766 28.7241H16.5489V29.7758C16.5489 29.9022 16.6302 29.9227 16.7688 29.9227C16.9177 29.9119 17.0649 29.8922 17.2086 29.864V30.1578C17.0239 30.1982 16.8312 30.22 16.6368 30.2224Z" fill="#3A474F"/>
<path d="M18.6138 30.418C18.4532 30.7779 18.1454 30.8425 17.8375 30.8425C17.6668 30.8383 17.4976 30.8196 17.334 30.7867V30.4929C17.4851 30.5166 17.6388 30.5329 17.7935 30.5414C17.9739 30.5414 18.0816 30.4532 18.1542 30.2476L18.1894 30.1536L17.2064 28.4525H17.8485L18.4247 29.7584L18.8886 28.4525H19.4978L18.6138 30.418Z" fill="#3A474F"/>
<path d="M22.9222 28.2374H22.157V30.1896H21.5984V28.2374H20.7694V27.9098H22.986L22.9222 28.2374Z" fill="#3A474F"/>
<path d="M24.0411 28.7915C23.9023 28.7921 23.7692 28.8284 23.6695 28.8929V30.1915H23.1132V28.4596H23.553L23.6277 28.6623C23.7184 28.5243 23.9191 28.4331 24.1445 28.4272C24.2288 28.428 24.3128 28.4344 24.3952 28.4463V28.8224C24.2791 28.8039 24.1604 28.7936 24.0411 28.7915Z" fill="#3A474F"/>
<path d="M26.3734 30.1897L26.3008 29.9841C26.0943 30.1224 25.8205 30.2068 25.5289 30.222C25.1133 30.222 24.8055 30.0972 24.8055 29.7167V28.4593H25.3618V29.658C25.3618 29.843 25.4608 29.9047 25.6807 29.9047C25.8934 29.8903 26.0971 29.8398 26.2722 29.7578V28.4622H26.8329V30.1927L26.3734 30.1897Z" fill="#3A474F"/>
<path d="M28.1091 30.2223C27.8853 30.2168 27.6635 30.1916 27.4494 30.1474V29.8345C27.6529 29.8763 27.8621 29.9043 28.0739 29.9182C28.3136 29.9182 28.5137 29.8889 28.5137 29.7096C28.5137 29.5627 28.3664 29.5275 28.1707 29.4746L27.9508 29.4129C27.6304 29.3536 27.4084 29.159 27.4077 28.937C27.4077 28.5668 27.8233 28.4272 28.3202 28.4272C28.5369 28.4281 28.7518 28.4534 28.9557 28.5022V28.796C28.7604 28.7568 28.559 28.7327 28.3554 28.724C28.1025 28.724 27.9398 28.771 27.9398 28.9105C27.9398 29.0501 28.1157 29.0897 28.2828 29.1323L28.5313 29.194C28.8581 29.2561 29.0772 29.461 29.0591 29.6876C29.0657 30.1503 28.5621 30.2223 28.1091 30.2223Z" fill="#3A474F"/>
<path d="M30.3515 30.2224C29.9887 30.2224 29.7072 30.1445 29.7072 29.7714V28.7241H29.2674V28.4596H29.7072L29.7402 28.0718L30.2635 27.9382V28.4596H30.8485L30.7913 28.7241H30.2635V29.7758C30.2635 29.9022 30.3471 29.9227 30.4834 29.9227C30.6323 29.9119 30.7795 29.8922 30.9232 29.864V30.1578C30.7385 30.1982 30.5458 30.22 30.3515 30.2224Z" fill="#3A474F"/>
<path d="M33.4248 30.1896H32.7211V27.9098H33.449C34.2604 27.9098 34.7442 27.9935 34.7442 28.4974C34.7681 28.7448 34.5061 28.9638 34.1395 29.0027C34.4803 29.0424 34.8431 29.1496 34.8431 29.5374C34.8387 30.1308 34.3044 30.1896 33.4248 30.1896ZM33.4556 28.1889H33.2797V28.8778H33.4754C33.9679 28.8778 34.1878 28.8249 34.1878 28.5121C34.1835 28.2271 33.9394 28.1889 33.4512 28.1889H33.4556ZM33.4754 29.1511H33.2797V29.9046H33.4842C34.0009 29.9046 34.2846 29.8694 34.2846 29.53C34.2846 29.1907 33.9877 29.1511 33.471 29.1511H33.4754Z" fill="#3A474F"/>
<path d="M36.775 30.19L36.7112 30.0108C36.5423 30.1463 36.2912 30.2239 36.0273 30.2223C35.7107 30.2223 35.2797 30.14 35.2797 29.6744C35.2797 29.2087 35.8514 29.1191 36.2626 29.1191H36.7024V28.959C36.7024 28.7534 36.5419 28.7343 36.2626 28.7343C36.0058 28.7437 35.7517 28.7743 35.5062 28.8253V28.5213C35.7806 28.4621 36.0666 28.4304 36.355 28.4272C36.8431 28.4272 37.25 28.5124 37.25 28.9884V30.19H36.775ZM36.6958 29.3307H36.4385C36.0427 29.3307 35.836 29.3953 35.836 29.6494C35.836 29.9035 35.9987 29.9315 36.1988 29.9315C36.3819 29.9231 36.5561 29.8757 36.6958 29.7963V29.3307Z" fill="#3A474F"/>
<path d="M39.6251 30.19V28.9487C39.6251 28.7695 39.4734 28.7475 39.2689 28.7475C39.0334 28.7567 38.8059 28.8074 38.6092 28.8944V30.187H38.0529V28.4596H38.4927L38.5916 28.6593C38.8291 28.5223 39.1272 28.4408 39.4404 28.4272C39.8802 28.4272 40.1683 28.5477 40.1683 28.9428V30.19H39.6251Z" fill="#3A474F"/>
<path d="M40.9825 30.19V27.8397H41.5389V30.19H40.9825ZM42.4185 30.2224L41.6224 29.1941L42.2975 28.4596H42.9572L42.1854 29.1941L43.054 30.1959L42.4185 30.2224Z" fill="#3A474F"/>
<path d="M46.3687 30.1896H44.8294V27.9098H45.3857V29.8635H46.4215L46.3687 30.1896Z" fill="#3A474F"/>
<path d="M47.4966 30.2224C47.136 30.2224 46.8523 30.1445 46.8523 29.7714V28.7241H46.4125V28.4596H46.8523L46.8875 28.0718L47.4087 27.9382V28.4596H47.9958L47.9364 28.7241H47.4087V29.7758C47.4087 29.9022 47.4922 29.9227 47.6286 29.9227C47.7775 29.9119 47.9247 29.8922 48.0684 29.864V30.1578C47.8837 30.1984 47.691 30.2202 47.4966 30.2224Z" fill="#3A474F"/>
<path d="M50.0473 30.19L49.9791 30.027C49.7956 30.1531 49.543 30.2236 49.2798 30.2224C48.895 30.2224 48.3123 30.1078 48.3123 29.3248C48.3123 28.5419 49.0511 28.4273 49.3788 28.4273C49.5834 28.4227 49.7815 28.476 49.9241 28.5742V27.8397H50.4826V30.19H50.0473ZM49.9241 28.8283C49.7929 28.7627 49.6349 28.7253 49.4711 28.7211C49.1765 28.7211 48.8686 28.7799 48.8686 29.3248C48.8686 29.8933 49.1479 29.9359 49.4205 29.9359C49.6058 29.9258 49.7817 29.8776 49.9241 29.7978V28.8283Z" fill="#3A474F"/>
<path d="M42.432 33.2393L42.3154 32.972C42.2849 32.8888 42.2237 32.812 42.1373 32.7487L41.9548 32.759V33.2393H41.6667V32.0641H42.0933C42.454 32.0641 42.7355 32.1126 42.7355 32.3991C42.7577 32.5463 42.6126 32.6816 42.3968 32.7149C42.4855 32.7636 42.55 32.8292 42.5815 32.9029L42.7596 33.2408L42.432 33.2393ZM42.0626 32.2228H41.9548V32.6179C42.2847 32.6062 42.4474 32.5724 42.4474 32.3991C42.4474 32.2257 42.322 32.2228 42.0626 32.2228Z" fill="#3A474F"/>
<path d="M43.5459 33.2558C43.2777 33.2558 42.9478 33.197 42.9478 32.652C42.9478 32.107 43.3414 32.0468 43.5723 32.0468C43.6769 32.0468 43.7805 32.0598 43.878 32.085V32.2422C43.7834 32.2211 43.685 32.2088 43.5855 32.2055C43.4096 32.2055 43.2359 32.2686 43.2359 32.6461C43.2359 32.9928 43.3744 33.0868 43.5591 33.0868C43.6676 33.0833 43.7749 33.0699 43.878 33.0472V33.2088C43.7721 33.2369 43.6598 33.2528 43.5459 33.2558Z" fill="#3A474F"/>
<path d="M44.975 33.2393V32.4931L44.6474 32.5842V32.4197L45.0388 32.2977H45.2587V33.2393H44.975Z" fill="#3A474F"/>
<path d="M46.2831 33.3822C46.0861 33.4396 45.8735 33.4691 45.6586 33.4688V33.3146C45.82 33.3149 45.9799 33.2939 46.1292 33.2529C46.2611 33.2156 46.3431 33.1266 46.3337 33.0311C46.3337 32.8842 46.2369 32.8563 46.0852 32.8563C45.9798 32.8587 45.8776 32.8812 45.7905 32.9209L45.641 32.8901L45.6674 32.3025H46.569L46.5426 32.4729H45.9335L45.9159 32.7476C45.9941 32.7208 46.0809 32.7072 46.1687 32.7079C46.2957 32.7053 46.4182 32.7395 46.5046 32.8018C46.591 32.864 46.6329 32.9482 46.6195 33.0326C46.6245 33.184 46.4914 33.3223 46.2831 33.3822Z" fill="#3A474F"/>
<path d="M47.3148 32.9957L47.1542 33.0736H47.7392L47.715 33.2396H46.842V33.0662L47.1147 32.909C47.306 32.7974 47.4709 32.724 47.4709 32.5859C47.4709 32.4816 47.3829 32.439 47.2202 32.439C47.0942 32.4433 46.9698 32.4596 46.8508 32.4875V32.3318C46.9771 32.2988 47.111 32.2809 47.2466 32.2789C47.5369 32.2789 47.759 32.3582 47.759 32.5727C47.759 32.7871 47.5303 32.8914 47.3148 32.9957Z" fill="#3A474F"/>
<path d="M48.6036 33.3923C48.3976 33.4438 48.1791 33.4692 47.9593 33.4672V33.3203C48.1212 33.3211 48.2822 33.3047 48.4365 33.2719C48.5656 33.2416 48.6485 33.1574 48.6388 33.0662C48.6388 32.9296 48.4826 32.8973 48.3067 32.8973H48.1308V32.7504H48.3089C48.4563 32.7504 48.5992 32.7137 48.5992 32.5785C48.5992 32.4757 48.4958 32.4316 48.3463 32.4316C48.2154 32.4346 48.0855 32.4479 47.9593 32.4713V32.3244C48.0887 32.299 48.2225 32.2847 48.3573 32.2818C48.6168 32.2818 48.8851 32.3347 48.8851 32.5624C48.8874 32.6852 48.7578 32.7916 48.5772 32.815C48.7769 32.8221 48.9319 32.9341 48.9268 33.0677C48.9356 33.2112 48.8051 33.3422 48.6036 33.3923Z" fill="#3A474F"/>
<path d="M49.6228 32.9957L49.4623 33.0736H50.0494L50.023 33.2396H49.1566V33.0662L49.4271 32.909C49.6184 32.7974 49.7855 32.724 49.7855 32.5859C49.7855 32.4816 49.6976 32.439 49.5326 32.439C49.4067 32.4434 49.2823 32.4598 49.1632 32.4875V32.3318C49.2902 32.2987 49.4249 32.2808 49.5612 32.2789C49.8493 32.2789 50.0714 32.3582 50.0714 32.5727C50.0714 32.7871 49.8405 32.8914 49.6228 32.9957Z" fill="#3A474F"/>
<path d="M50.5484 33.2393V32.4931L50.223 32.5842V32.4197L50.6122 32.2977H50.8321V33.2393H50.5484Z" fill="#3A474F"/>
<path d="M37.7984 0H0.00671387V25.2469H37.7984V0Z" fill="#E04403"/>
<path d="M31.0919 3.58844H21.6429V9.90053H31.0919V3.58844Z" fill="white"/>
<path d="M9.78831 20.4375C8.24902 20.4375 6.60858 20.151 6.60858 17.6538C6.60858 15.1566 8.58766 14.7159 10.2523 14.7159C10.9294 14.7097 11.5992 14.8104 12.2072 15.0097V15.8999C11.5793 15.7442 10.9207 15.6507 10.2523 15.6222C9.40788 15.6222 8.27321 15.9249 8.27321 17.5862C8.27321 19.349 9.1528 19.5605 9.76192 19.5605C10.142 19.5534 10.5207 19.5264 10.8944 19.4797V17.789H9.76192L9.64317 16.937H12.5612V20.151C11.6577 20.3211 10.7265 20.4172 9.78831 20.4375Z" fill="white"/>
<path d="M19.0422 15.7441H17.2082V20.3581H15.5392V15.7441H13.5161V14.7893H19.2335L19.0422 15.7441Z" fill="white"/>
<path d="M22.609 20.4373C21.2148 20.4373 19.6558 20.1435 19.6558 17.5728C19.6558 15.0021 21.6194 14.7098 22.7629 14.7098C23.2912 14.7025 23.8159 14.7701 24.3022 14.9081V15.8071C23.8334 15.6984 23.3442 15.6341 22.8487 15.6162C22.0395 15.6162 21.3248 15.9423 21.3248 17.5728C21.3248 19.03 21.8371 19.5221 22.7299 19.5221C23.266 19.5094 23.7961 19.4425 24.3022 19.3238V20.2228C23.7676 20.3752 23.19 20.4483 22.609 20.4373Z" fill="white"/>
<path d="M28.1687 20.4376C26.8823 20.4376 25.1913 20.2628 25.1913 17.5731C25.1913 14.8835 26.99 14.7101 28.1687 14.7101C29.3474 14.7101 31.1461 14.9011 31.1461 17.5731C31.1461 20.2863 29.4265 20.4376 28.1687 20.4376ZM28.1687 15.5048C27.3353 15.5048 26.8493 15.8706 26.8493 17.5731C26.8493 19.3006 27.4562 19.6429 28.1687 19.6429C28.8812 19.6429 29.4771 19.3241 29.4771 17.5731C29.4771 15.9029 28.9867 15.5048 28.1687 15.5048Z" fill="white"/>
</svg>
