<svg width="24" height="25" viewBox="0 0 24 25" fill="none" xmlns="http://www.w3.org/2000/svg">
<g clip-path="url(#clip0_651_4548)">
<path d="M18.375 0.0908203H5.625C2.5184 0.0908203 0 2.60922 0 5.71582V18.4658C0 21.5724 2.5184 24.0908 5.625 24.0908H18.375C21.4816 24.0908 24 21.5724 24 18.4658V5.71582C24 2.60922 21.4816 0.0908203 18.375 0.0908203Z" fill="url(#paint0_radial_651_4548)"/>
<path d="M18.375 0.0908203H5.625C2.5184 0.0908203 0 2.60922 0 5.71582V18.4658C0 21.5724 2.5184 24.0908 5.625 24.0908H18.375C21.4816 24.0908 24 21.5724 24 18.4658V5.71582C24 2.60922 21.4816 0.0908203 18.375 0.0908203Z" fill="url(#paint1_radial_651_4548)"/>
<path d="M12.0008 2.71582C9.45478 2.71582 9.13519 2.72698 8.13525 2.77245C7.13719 2.8182 6.45591 2.97616 5.85984 3.20801C5.24316 3.44745 4.72013 3.76779 4.19906 4.28904C3.67753 4.8102 3.35719 5.33323 3.117 5.94963C2.8845 6.54588 2.72634 7.22745 2.68144 8.22504C2.63672 9.22507 2.625 9.54476 2.625 12.0909C2.625 14.6371 2.63625 14.9556 2.68163 15.9556C2.72756 16.9536 2.88553 17.6349 3.11719 18.231C3.35681 18.8477 3.67716 19.3707 4.19841 19.8918C4.71938 20.4133 5.24241 20.7344 5.85862 20.9738C6.45516 21.2057 7.13653 21.3636 8.13441 21.4094C9.13444 21.4549 9.45375 21.466 11.9997 21.466C14.5461 21.466 14.8646 21.4549 15.8646 21.4094C16.8626 21.3636 17.5447 21.2057 18.1412 20.9738C18.7576 20.7344 19.2799 20.4133 19.8007 19.8918C20.3223 19.3707 20.6425 18.8477 20.8828 18.2313C21.1133 17.6349 21.2715 16.9534 21.3184 15.9558C21.3633 14.9558 21.375 14.6371 21.375 12.0909C21.375 9.54476 21.3633 9.22526 21.3184 8.22523C21.2715 7.22716 21.1133 6.54598 20.8828 5.94991C20.6425 5.33323 20.3223 4.8102 19.8007 4.28904C19.2793 3.7676 18.7578 3.44726 18.1406 3.2081C17.543 2.97616 16.8613 2.8181 15.8632 2.77245C14.8632 2.72698 14.5448 2.71582 11.9979 2.71582H12.0008ZM11.1598 4.40529C11.4095 4.40491 11.688 4.40529 12.0008 4.40529C14.5041 4.40529 14.8007 4.41429 15.7892 4.4592C16.7032 4.50101 17.1994 4.65373 17.5298 4.78207C17.9674 4.95195 18.2793 5.1551 18.6072 5.48332C18.9353 5.81145 19.1384 6.12391 19.3088 6.56144C19.4371 6.89145 19.59 7.38757 19.6316 8.30163C19.6765 9.28995 19.6863 9.58676 19.6863 12.0888C19.6863 14.5908 19.6765 14.8877 19.6316 15.8759C19.5898 16.7899 19.4371 17.2861 19.3088 17.6162C19.1389 18.0537 18.9353 18.3652 18.6072 18.6932C18.2791 19.0213 17.9676 19.2244 17.5298 19.3943C17.1997 19.5232 16.7032 19.6756 15.7892 19.7174C14.8009 19.7623 14.5041 19.772 12.0008 19.772C9.49753 19.772 9.20081 19.7623 8.21259 19.7174C7.29853 19.6752 6.80241 19.5225 6.47166 19.3941C6.03422 19.2242 5.72166 19.0211 5.39353 18.693C5.06541 18.3649 4.86234 18.0531 4.692 17.6154C4.56366 17.2853 4.41075 16.7892 4.36913 15.8751C4.32422 14.8868 4.31522 14.59 4.31522 12.0864C4.31522 9.58291 4.32422 9.2876 4.36913 8.29929C4.41094 7.38523 4.56366 6.8891 4.692 6.55863C4.86197 6.1211 5.06541 5.80863 5.39363 5.48051C5.72175 5.15238 6.03422 4.94923 6.47175 4.77898C6.80222 4.65007 7.29853 4.49773 8.21259 4.45573C9.07744 4.41663 9.41259 4.40491 11.1598 4.40295V4.40529ZM17.0052 5.96191C16.3841 5.96191 15.8802 6.46535 15.8802 7.08654C15.8802 7.70763 16.3841 8.21154 17.0052 8.21154C17.6263 8.21154 18.1302 7.70763 18.1302 7.08654C18.1302 6.46545 17.6263 5.96154 17.0052 5.96154V5.96191ZM12.0008 7.27638C9.34209 7.27638 7.18641 9.43207 7.18641 12.0909C7.18641 14.7498 9.34209 16.9044 12.0008 16.9044C14.6597 16.9044 16.8146 14.7498 16.8146 12.0909C16.8146 9.43216 14.6595 7.27638 12.0007 7.27638H12.0008ZM12.0008 8.96585C13.7267 8.96585 15.1259 10.3649 15.1259 12.0909C15.1259 13.8168 13.7267 15.216 12.0008 15.216C10.2749 15.216 8.87588 13.8168 8.87588 12.0909C8.87588 10.3649 10.2749 8.96585 12.0008 8.96585Z" fill="white"/>
</g>
<defs>
<radialGradient id="paint0_radial_651_4548" cx="0" cy="0" r="1" gradientUnits="userSpaceOnUse" gradientTransform="translate(6.375 25.9393) rotate(-90) scale(23.7858 22.1227)">
<stop stop-color="#FFDD55"/>
<stop offset="0.1" stop-color="#FFDD55"/>
<stop offset="0.5" stop-color="#FF543E"/>
<stop offset="1" stop-color="#C837AB"/>
</radialGradient>
<radialGradient id="paint1_radial_651_4548" cx="0" cy="0" r="1" gradientUnits="userSpaceOnUse" gradientTransform="translate(-4.02009 1.81966) rotate(78.681) scale(10.6324 43.827)">
<stop stop-color="#3771C8"/>
<stop offset="0.128" stop-color="#3771C8"/>
<stop offset="1" stop-color="#6600FF" stop-opacity="0"/>
</radialGradient>
<clipPath id="clip0_651_4548">
<rect width="24" height="24" fill="white" transform="translate(0 0.0908203)"/>
</clipPath>
</defs>
</svg>
