<svg width="24" height="19" viewBox="0 0 24 19" fill="none" xmlns="http://www.w3.org/2000/svg">
<path d="M2.77 18.25C2.19417 18.25 1.71375 18.0575 1.32875 17.6725C0.94375 17.2875 0.750833 16.8067 0.75 16.23V2.77C0.75 2.19417 0.942917 1.71375 1.32875 1.32875C1.71458 0.94375 2.19458 0.750833 2.76875 0.75H21.2313C21.8062 0.75 22.2863 0.942916 22.6713 1.32875C23.0563 1.71458 23.2492 2.195 23.25 2.77V16.2313C23.25 16.8062 23.0571 17.2867 22.6713 17.6725C22.2854 18.0583 21.8054 18.2508 21.2313 18.25H2.77ZM12 9.645L2 3.10625V16.2313C2 16.4554 2.07208 16.6396 2.21625 16.7837C2.36042 16.9279 2.545 17 2.77 17H21.2313C21.4554 17 21.6396 16.9279 21.7837 16.7837C21.9279 16.6396 22 16.455 22 16.23V3.105L12 9.645ZM12 8.25L21.615 2H2.385L12 8.25ZM2 3.10625V2V16.2313C2 16.4554 2.07208 16.6396 2.21625 16.7837C2.36042 16.9279 2.545 17 2.77 17H2V3.10625Z" fill="#0357EE"/>
</svg>
