<svg width="55" height="30" viewBox="0 0 55 30" fill="none" xmlns="http://www.w3.org/2000/svg">
<path d="M34.6374 3.14978H19.8929V26.3124H34.6374V3.14978Z" fill="#FF5F00"/>
<path d="M20.8334 14.7309C20.8334 10.2293 23.2206 5.9324 27.2461 3.14962C19.944 -1.88395 9.36547 -0.779019 3.6081 5.64594C-2.14927 12.03 -0.885453 21.2786 6.46338 26.3122C12.5952 30.5273 21.161 30.5273 27.2929 26.3122C23.2206 23.5294 20.8334 19.2325 20.8334 14.7309Z" fill="#EB001B"/>
<path d="M54.5339 14.7309C54.5339 22.8746 46.9979 29.4633 37.6831 29.4633C33.8917 29.4633 30.2407 28.3584 27.2918 26.3122C34.5938 21.2786 35.8576 12.03 30.1002 5.60501C29.2577 4.7047 28.3215 3.84531 27.2918 3.14962C34.5938 -1.88395 45.2192 -0.779019 50.9297 5.64594C53.2701 8.2241 54.5339 11.4161 54.5339 14.7309Z" fill="#F79E1B"/>
<path d="M52.9459 23.8567V23.3656H53.1799V23.2838H52.6182V23.3656H52.8523V23.8567H52.9459ZM54.0225 23.8567V23.2838H53.8352L53.648 23.693L53.4608 23.2838H53.2736V23.8567H53.414V23.4065L53.6012 23.7748H53.7416L53.9289 23.4065V23.8567H54.0225Z" fill="#F79E1B"/>
</svg>
