<svg width="22" height="25" viewBox="0 0 22 25" fill="none" xmlns="http://www.w3.org/2000/svg">
<g clip-path="url(#clip0_651_4553)">
<path d="M15.701 8.73248C17.2467 9.83689 19.1404 10.4867 21.1856 10.4867V6.55319C20.7985 6.55335 20.4125 6.51296 20.0338 6.4327V9.52895C17.9887 9.52895 16.0953 8.87921 14.5492 7.77488V15.8021C14.5492 19.8178 11.2922 23.0729 7.27473 23.0729C5.77572 23.0729 4.3824 22.62 3.22502 21.8431C4.54601 23.1931 6.38822 24.0306 8.42623 24.0306C12.444 24.0306 15.7011 20.7755 15.7011 16.7597V8.73248H15.701ZM17.1219 4.76404C16.3319 3.90144 15.8132 2.78668 15.701 1.55424V1.04834H14.6095C14.8842 2.61471 15.8215 3.95292 17.1219 4.76404ZM5.76604 18.7617C5.32464 18.1833 5.08605 17.4757 5.08717 16.7481C5.08717 14.9116 6.57691 13.4224 8.4149 13.4224C8.75737 13.4222 9.09783 13.4748 9.4243 13.5782V9.55675C9.04279 9.50453 8.65779 9.48227 8.27297 9.49046V12.6206C7.94633 12.5171 7.6057 12.4645 7.26306 12.4648C5.42516 12.4648 3.9355 13.9538 3.9355 15.7906C3.9355 17.0894 4.68008 18.2139 5.76604 18.7617Z" fill="#FF004F"/>
<path d="M14.5492 7.7748C16.0954 8.87913 17.9887 9.52886 20.0338 9.52886V6.43262C18.8922 6.18955 17.8817 5.59336 17.1218 4.76404C15.8213 3.95284 14.8842 2.61463 14.6095 1.04834H11.7425V16.7595C11.7359 18.5911 10.2487 20.0741 8.41473 20.0741C7.33407 20.0741 6.3739 19.5593 5.76587 18.7616C4.68008 18.2139 3.93542 17.0894 3.93542 15.7907C3.93542 13.9541 5.42507 12.4649 7.26298 12.4649C7.61511 12.4649 7.95451 12.5197 8.27288 12.6206V9.49055C4.32596 9.57207 1.15175 12.7953 1.15175 16.7596C1.15175 18.7385 1.94218 20.5325 3.2251 21.8433C4.38248 22.62 5.77572 23.0731 7.27481 23.0731C11.2923 23.0731 14.5493 19.8177 14.5493 15.8021L14.5492 7.7748Z" fill="black"/>
<path d="M20.0338 6.43261V5.59559C19.0044 5.59709 17.9953 5.30895 17.1218 4.76412C17.895 5.61009 18.913 6.19347 20.0338 6.43278M14.6094 1.04834C14.5832 0.898675 14.5631 0.748013 14.5491 0.596724V0.0908203H10.5905V15.8021C10.5842 17.6336 9.09699 19.1166 7.2629 19.1166C6.74295 19.1174 6.2301 18.9959 5.76579 18.7618C6.37382 19.5594 7.33399 20.0741 8.41465 20.0741C10.2486 20.0741 11.7359 18.5913 11.7424 16.7596V1.04842L14.6094 1.04834ZM8.27305 9.49054V8.59932C7.94225 8.55415 7.60876 8.53154 7.2749 8.53162C3.25697 8.53162 0 11.7868 0 15.8021C0 18.3196 1.28003 20.5382 3.22519 21.8432C1.94226 20.5324 1.15183 18.7384 1.15183 16.7596C1.15183 12.7954 4.32596 9.57206 8.27305 9.49054Z" fill="#00F2EA"/>
</g>
<defs>
<clipPath id="clip0_651_4553">
<rect width="21.1862" height="24" fill="white" transform="translate(0 0.0908203)"/>
</clipPath>
</defs>
</svg>
