<svg width="18" height="20" viewBox="0 0 18 20" fill="none" xmlns="http://www.w3.org/2000/svg">
<path d="M15.71 17.5C14.88 18.74 14 19.95 12.66 19.97C11.32 20 10.89 19.18 9.36997 19.18C7.83997 19.18 7.36997 19.95 6.09997 20C4.78997 20.05 3.79997 18.68 2.95997 17.47C1.24997 15 -0.0600302 10.45 1.69997 7.39C2.56997 5.87 4.12997 4.91 5.81997 4.88C7.09997 4.86 8.31997 5.75 9.10997 5.75C9.88997 5.75 11.37 4.68 12.92 4.84C13.57 4.87 15.39 5.1 16.56 6.82C16.47 6.88 14.39 8.1 14.41 10.63C14.44 13.65 17.06 14.66 17.09 14.67C17.06 14.74 16.67 16.11 15.71 17.5ZM9.99997 1.5C10.73 0.67 11.94 0.04 12.94 0C13.07 1.17 12.6 2.35 11.9 3.19C11.21 4.04 10.07 4.7 8.94997 4.61C8.79997 3.46 9.35997 2.26 9.99997 1.5Z" fill="white"/>
</svg>
