<svg width="77" height="21" viewBox="0 0 77 21" fill="none" xmlns="http://www.w3.org/2000/svg">
<path d="M50.3016 0.549805C44.8851 0.549805 40.0219 2.8743 40.0219 7.13986C40.0219 12.0525 48.6126 12.3879 48.6126 14.8323C48.6126 15.8627 47.1566 16.7973 44.7104 16.7973C41.2158 16.7973 38.5949 15.5032 38.5949 15.5032L37.4883 19.8167C37.4883 19.8167 40.4878 20.9191 44.5065 20.9191C50.4472 20.9191 55.1066 18.4987 55.1066 14.1373C55.1066 8.96111 46.4868 8.62562 46.4868 6.34906C46.4868 5.53428 47.6807 4.64762 50.1269 4.64762C52.8934 4.64762 55.1649 5.58221 55.1649 5.58221L56.2715 1.4125C56.2423 1.4125 53.7671 0.549805 50.3016 0.549805ZM0.679206 0.861335L0.5336 1.48439C0.5336 1.48439 2.80505 1.81989 4.87265 2.51484C7.52267 3.30565 7.6974 3.76096 8.16334 5.17483L13.0266 20.5836H19.5497L29.5383 0.861335H23.0442L16.6085 14.2811L13.9876 2.89826C13.7546 1.60421 12.5315 0.861335 11.0172 0.861335H0.679206ZM32.1592 0.861335L27.063 20.5836H33.2658L38.3328 0.861335H32.1592ZM66.6968 0.861335C65.2117 0.861335 64.4254 1.50836 63.843 2.65862L54.7572 20.5836H61.2512L62.5034 17.5881H70.4243L71.1815 20.5836H76.9184L71.9386 0.861335H66.6968ZM67.5414 6.20527L69.4633 13.6101H64.3089L67.5414 6.20527Z" fill="#1434CB"/>
</svg>
