<svg width="140" height="50" viewBox="0 0 140 50" fill="none" xmlns="http://www.w3.org/2000/svg">
<g opacity="0.8">
<path d="M2.58792 9.93272H10.1907L18.2205 29.5233H18.5622L26.5921 9.93272H34.1948V39.0908H28.2152V20.1124H27.9731L20.4273 38.9484H16.3554L8.80964 20.0412H8.56761V39.0908H2.58792V9.93272ZM39.274 39.0908V9.93272H58.9216V15.0155H45.4388V21.9633H57.9107V27.046H45.4388V34.0081H58.9785V39.0908H39.274Z" fill="#092256"/>
<path d="M63.8228 39.0908V9.93272H75.3265C77.5381 9.93272 79.4222 10.3551 80.9788 11.1998C82.5354 12.0351 83.7218 13.1978 84.5381 14.688C85.3639 16.1687 85.7768 17.8772 85.7768 19.8134C85.7768 21.7497 85.3591 23.4582 84.5239 24.9389C83.6886 26.4196 82.4784 27.5728 80.8934 28.3986C79.3178 29.2243 77.4099 29.6372 75.1699 29.6372H67.8377V24.6969H74.1733C75.3598 24.6969 76.3374 24.4928 77.1062 24.0847C77.8845 23.667 78.4635 23.0928 78.8432 22.3619C79.2323 21.6216 79.4269 20.7721 79.4269 19.8134C79.4269 18.8453 79.2323 18.0006 78.8432 17.2792C78.4635 16.5483 77.8845 15.9836 77.1062 15.585C76.3279 15.1768 75.3408 14.9727 74.1448 14.9727H69.9875V39.0908H63.8228ZM91.4397 39.0908H84.8335L94.8993 9.93272H102.844L112.895 39.0908H106.289L98.9855 16.5958H98.7577L91.4397 39.0908ZM91.0268 27.6298H106.631V32.442H91.0268V27.6298ZM111.721 9.93272H118.626L125.275 22.4901H125.559L132.208 9.93272H139.113L128.478 28.783V39.0908H122.356V28.783L111.721 9.93272Z" fill="#0357EE"/>
</g>
</svg>
